<?xml version="1.0" encoding="UTF-8" standalone="no"?>
<svg xmlns:dc="http://purl.org/dc/elements/1.1/" xmlns:cc="http://creativecommons.org/ns#" xmlns:rdf="http://www.w3.org/1999/02/22-rdf-syntax-ns#" xmlns:svg="http://www.w3.org/2000/svg" xmlns="http://www.w3.org/2000/svg" viewBox="0 0 601 601" height="601" width="601" xml:space="preserve" version="1.1" id="svg21488"><metadata id="metadata21494"><rdf:RDF><cc:Work rdf:about=""><dc:format>image/svg+xml</dc:format><dc:type rdf:resource="http://purl.org/dc/dcmitype/StillImage"/><dc:title/></cc:Work></rdf:RDF></metadata><defs id="defs21492"/><g transform="matrix(1.25,0,0,-1.25,0,600.99998)" id="g21496"><g id="g21498"><path id="path21500" style="fill:#ffffff;fill-opacity:1;fill-rule:evenodd;stroke:none" d="m 240.395,0.402 c 132.554,0 240.003,107.449 240.003,240.003 0,132.547 -107.449,239.997 -240.003,239.997 C 107.848,480.402 0.398,372.952 0.398,240.405 0.398,107.851 107.848,0.402 240.395,0.402 Z"/><path id="path21502" style="fill:#b52126;fill-opacity:1;fill-rule:evenodd;stroke:none" d="m 240.43,472.46 c -59.379,0 -118.762,-22.656 -164.067,-67.965 -90.617,-90.613 -90.613,-237.519 0.008,-328.129 90.613,-90.617 237.516,-90.617 328.129,0 90.613,90.61 90.621,237.516 0,328.129 -45.305,45.309 -104.684,67.965 -164.066,67.965 l -0.004,0 z m 0,-68.039 c 43.496,0 85.207,-17.281 115.961,-48.035 30.754,-30.754 48.031,-72.461 48.031,-115.957 0,-43.492 -17.277,-85.203 -48.031,-115.957 C 325.637,93.718 283.926,76.441 240.43,76.441 c -43.492,0 -85.207,17.277 -115.961,48.031 -30.754,30.754 -48.028,72.465 -48.028,115.957 0,43.496 17.274,85.203 48.028,115.957 30.754,30.754 72.469,48.035 115.961,48.035 z"/><path id="path21504" style="fill:#ffffff;fill-opacity:1;fill-rule:nonzero;stroke:#000000;stroke-width:0.73891401;stroke-linecap:butt;stroke-linejoin:miter;stroke-miterlimit:4;stroke-dasharray:none;stroke-opacity:1" d="m 240.43,428.831 c 2.441,0 4.433,-1.976 4.433,-4.418 0,-2.461 -1.992,-4.441 -4.433,-4.441 -2.45,0 -4.43,1.98 -4.43,4.441 0,2.442 1.98,4.418 4.43,4.418 z"/><path id="path21506" style="fill:#ffffff;fill-opacity:1;fill-rule:nonzero;stroke:#000000;stroke-width:0.73895103;stroke-linecap:butt;stroke-linejoin:miter;stroke-miterlimit:4;stroke-dasharray:none;stroke-opacity:1" d="m 240.434,51.972 c -2.446,0 -4.438,1.973 -4.438,4.414 0,2.461 1.992,4.441 4.438,4.441 2.445,0 4.425,-1.98 4.425,-4.441 0,-2.441 -1.98,-4.414 -4.425,-4.414 z"/><path id="path21508" style="fill:#000000;fill-opacity:1;fill-rule:evenodd;stroke:none" d="M 240.395,480.8 C 107.633,480.8 0,373.167 0,240.402 0,107.632 107.633,-0.001 240.395,-0.001 c 132.769,0 240.406,107.633 240.406,240.403 0,132.765 -107.637,240.398 -240.406,240.398 z m 0,-0.398 c 132.554,0 240.003,-107.45 240.003,-239.997 C 480.398,107.851 372.949,0.402 240.395,0.402 107.848,0.402 0.398,107.851 0.398,240.405 c 0,132.547 107.45,239.997 239.997,239.997 z"/><path id="path21510" style="fill:#b52126;fill-opacity:1;fill-rule:evenodd;stroke:none" d="m 164.309,292.624 c -29.746,-0.047 -53.856,-2.988 -53.848,-6.57 l -8.902,-34.496 c -4.676,-3.582 -7.758,-9.727 -7.75,-16.711 0.011,-1.375 0.144,-2.746 0.39,-4.09 l 4.5,-24.836 c 0.239,-1.144 2.188,-2.223 5.516,-3.207 l 0.027,-16.992 c 0.012,-5.727 4.66,-10.36 10.387,-10.348 5.726,0.004 10.363,4.656 10.351,10.383 l -0.023,13.594 c 11.02,-1.063 24.684,-1.688 39.508,-1.664 14.82,0.027 28.484,0.699 39.496,1.797 l 0.027,-13.594 c 0.004,-5.731 4.657,-10.363 10.383,-10.352 5.731,0.008 10.363,4.657 10.352,10.387 l -0.028,16.988 c 3.325,0.992 5.274,2.078 5.508,3.223 l 4.41,24.851 c 0.246,1.348 0.375,2.719 0.379,4.094 -0.012,6.985 -3.113,13.121 -7.804,16.688 l -9.012,34.465 c -0.008,3.582 -24.125,6.445 -53.867,6.39 z m 0.015,-11.969 c 17.645,0.032 33.903,-0.984 43.867,-2.664 1.836,-7.66 5.012,-20.98 5.532,-23.496 -0.082,-0.019 -0.164,-0.039 -0.243,-0.062 -12.078,1.48 -30.097,2.316 -49.117,2.285 -19.019,-0.031 -37.035,-0.934 -49.105,-2.445 -0.078,0.019 -0.164,0.039 -0.242,0.058 0.515,2.524 3.644,15.852 5.453,23.516 9.961,1.711 26.215,2.777 43.855,2.808 z"/><path id="path21512" style="fill:#000000;fill-opacity:1;fill-rule:evenodd;stroke:none" d="m 316.309,292.624 c -29.746,-0.047 -53.856,-2.988 -53.848,-6.57 l -8.902,-34.496 c -4.676,-3.582 -7.758,-9.727 -7.75,-16.711 0.011,-1.375 0.144,-2.746 0.39,-4.09 l 4.5,-24.836 c 0.239,-1.144 2.188,-2.223 5.516,-3.207 l 0.027,-16.992 c 0.012,-5.727 4.66,-10.36 10.387,-10.348 5.726,0.004 10.363,4.656 10.351,10.383 l -0.023,13.594 c 11.02,-1.063 24.684,-1.688 39.508,-1.664 14.82,0.027 28.484,0.699 39.496,1.797 l 0.027,-13.594 c 0.004,-5.731 4.657,-10.363 10.383,-10.352 5.731,0.008 10.363,4.657 10.352,10.387 l -0.028,16.988 c 3.325,0.992 5.274,2.078 5.508,3.223 l 4.41,24.851 c 0.246,1.348 0.375,2.719 0.379,4.094 -0.012,6.985 -3.113,13.121 -7.804,16.688 l -9.012,34.465 c -0.008,3.582 -24.125,6.445 -53.867,6.39 z m 0.015,-11.969 c 17.645,0.032 33.903,-0.984 43.867,-2.664 1.836,-7.66 5.012,-20.98 5.532,-23.496 -0.082,-0.019 -0.164,-0.039 -0.243,-0.062 -12.078,1.48 -30.097,2.316 -49.117,2.285 -19.019,-0.031 -37.035,-0.934 -49.105,-2.445 -0.078,0.019 -0.164,0.039 -0.242,0.058 0.515,2.524 3.644,15.852 5.453,23.516 9.961,1.711 26.215,2.777 43.855,2.808 z"/></g></g></svg>