<?xml version="1.0" encoding="UTF-8" standalone="no"?>
<!-- Created with Inkscape (http://www.inkscape.org/) -->
<svg xmlns:dc="http://purl.org/dc/elements/1.1/" xmlns:cc="http://creativecommons.org/ns#" xmlns:rdf="http://www.w3.org/1999/02/22-rdf-syntax-ns#" xmlns:svg="http://www.w3.org/2000/svg" xmlns="http://www.w3.org/2000/svg" xmlns:sodipodi="http://sodipodi.sourceforge.net/DTD/sodipodi-0.dtd" xmlns:inkscape="http://www.inkscape.org/namespaces/inkscape" version="1.0" width="600" height="600" id="svg1961" inkscape:version="0.92.1 r15371" sodipodi:docname="274-59.svg">
  <metadata id="metadata12">
    <rdf:RDF>
      <cc:Work rdf:about="">
        <dc:format>image/svg+xml</dc:format>
        <dc:type rdf:resource="http://purl.org/dc/dcmitype/StillImage"/>
        <dc:title/>
      </cc:Work>
    </rdf:RDF>
  </metadata>
  <sodipodi:namedview pagecolor="#ffffff" bordercolor="#666666" borderopacity="1" objecttolerance="10" gridtolerance="10" guidetolerance="10" inkscape:pageopacity="0" inkscape:pageshadow="2" inkscape:window-width="1665" inkscape:window-height="1395" id="namedview10" showgrid="false" inkscape:zoom="2.2250293" inkscape:cx="260.18607" inkscape:cy="305.64931" inkscape:window-x="74" inkscape:window-y="0" inkscape:window-maximized="0" inkscape:current-layer="layer1"/>
  <defs id="defs1963"/>
  <g transform="translate(0.62188,-134.606)" id="layer1">
    <path d="M 591.95264,434.74696 C 593.09662,287.86662 481.45088,162.26431 335.97021,144.44513 C 168.29633,123.44973 18.636786,248.23779 7.3113803,416.57787 C -2.5874147,584.50073 131.06315,727.83475 299.63202,727.0676 C 460.35453,728.16448 592.98223,595.36181 591.95264,434.74696" style="fill:#fffefe;fill-rule:evenodd;stroke:black;stroke-width:1.1739316;stroke-opacity:1" id="path10"/>
    <path d="M 591.69875,434.80787 L 591.29499,416.63878 M 591.29499,416.63878 L 586.85366,379.89681 M 586.85366,379.89681 L 577.56724,344.36613 M 577.56724,344.36613 L 564.24322,310.04673 M 564.24322,310.04673 L 546.47788,278.14986 M 546.47788,278.14986 L 524.67496,248.27178 M 524.67496,248.27178 L 499.64199,221.62377 M 499.64199,221.62377 L 471.37893,198.20582 M 471.37893,198.20582 L 440.28959,178.42168 M 440.28959,178.42168 L 407.18144,162.67514 M 407.18144,162.67514 L 372.05453,151.36992 M 372.05453,151.36992 L 335.71632,144.50604 M 335.71632,144.50604 L 299.37813,142.08349 M 299.37813,142.08349 L 262.63617,144.50604 M 262.63617,144.50604 L 226.70172,151.36992 M 226.70172,151.36992 L 191.5748,162.67514 M 191.5748,162.67514 L 158.46666,178.42168 M 158.46666,178.42168 L 127.37732,198.20582 M 127.37732,198.20582 L 99.114266,221.62377 M 99.114266,221.62377 L 74.081283,248.27178 M 74.081283,248.27178 L 52.278363,278.14986 M 52.278363,278.14986 L 34.513021,310.04673 M 34.513021,310.04673 L 21.189014,344.36613 M 21.189014,344.36613 L 11.902585,379.89681 M 11.902585,379.89681 L 7.0574922,416.63878 M 7.0574922,416.63878 L 7.0574922,452.97698 M 7.0574922,452.97698 L 11.902585,489.71893 M 11.902585,489.71893 L 21.189014,525.24962 M 21.189014,525.24962 L 34.513021,559.16528 M 34.513021,559.16528 L 52.278363,591.4659 M 52.278363,591.4659 L 74.081283,621.34397 M 74.081283,621.34397 L 99.114266,647.99199 M 99.114266,647.99199 L 127.37732,671.40994 M 127.37732,671.40994 L 158.46666,691.19406 M 158.46666,691.19406 L 191.5748,706.94062 M 191.5748,706.94062 L 226.70172,718.24584 M 226.70172,718.24584 L 262.63617,725.10972 M 262.63617,725.10972 L 299.37813,727.12851 M 299.37813,727.12851 L 335.71632,725.10972 M 335.71632,725.10972 L 372.05453,718.24584 M 372.05453,718.24584 L 407.18144,706.94062 M 407.18144,706.94062 L 440.28959,691.19406 M 440.28959,691.19406 L 471.37893,671.40994 M 471.37893,671.40994 L 499.64199,647.99199 M 499.64199,647.99199 L 524.67496,621.34397 M 524.67496,621.34397 L 546.47788,591.4659 M 546.47788,591.4659 L 564.24322,559.16528 M 564.24322,559.16528 L 577.56724,525.24962 M 577.56724,525.24962 L 586.85366,489.71893 M 586.85366,489.71893 L 591.29499,452.97698 M 591.29499,452.97698 L 591.69875,434.80787" id="path14"/>
    <path d="M 577.25603,434.71143 C 577.71363,294.64114 472.93175,176.59581 334.19386,158.94488 C 175.51705,138.81082 31.52356,257.36757 22.089087,417.34986 C 11.712512,577.4129 139.26632,712.78614 299.47069,712.49679 C 452.43432,712.94766 577.88186,587.78947 577.25603,434.71143" style="fill:#c1121c;fill-opacity:1;fill-rule:evenodd;stroke:none" id="path16"/>
    <path d="M 504.08836,434.63645 C 504.39791,331.94066 426.91007,243.75996 324.81991,231.54629 C 208.09354,216.52649 102.0331,304.28326 95.081736,421.71621 C 87.645864,540.16528 181.13599,638.77639 299.38318,639.34165 C 412.96697,638.43992 503.57021,548.65766 504.08836,434.63645" style="fill:#fffefe;fill-rule:evenodd;stroke:none" id="path18"/>
    <path inkscape:connector-curvature="0" style="fill:#000000;fill-rule:evenodd;stroke:none;stroke-width:0.99999994" d="m 380.65343,314.87211 c -18.00986,4.6e-4 -34.59817,5.87072 -49.76367,17.61133 -14.21836,12.19283 -21.32647,29.12718 -21.32617,50.80274 v 104.31445 c -3e-4,21.6754 7.10781,38.60867 21.32617,50.80078 14.69159,11.74054 31.27989,17.61328 49.76367,17.61328 17.53512,0 33.88644,-5.87274 49.05274,-17.61328 14.21756,-12.19211 21.32571,-29.12538 21.32617,-50.80078 V 383.28618 c -4.6e-4,-21.67556 -7.10861,-38.60991 -21.32617,-50.80274 -16.11417,-11.74061 -32.46549,-17.61087 -49.05274,-17.61133 z m -163.48633,0.22266 c -16.77539,-0.22641 -33.71147,5.88576 -47.75781,18.66406 -24.62918,19.66303 -27.92587,71.09494 -14.13086,96.49805 15.11407,24.68976 42.40221,33.82872 69.44727,23.82227 l -51.27735,102.15039 h 38.35547 l 65.8125,-131.625 1.21289,-2.82617 2.42188,-6.05665 1.61523,-6.05664 1.21094,-6.05664 0.4043,-6.45898 v -3.23047 c 1.0834,-20.8608 -2.30238,-37.15918 -15.34375,-54.10352 -14.15319,-16.06578 -32.95859,-24.4641 -51.97071,-24.7207 z m 163.48633,33.64649 c 6.16074,4.5e-4 10.90086,0.90308 14.21875,2.70898 1.42141,0.45199 3.08045,1.3547 4.97656,2.70898 1.89532,0.9035 4.02642,2.25852 6.39649,4.06446 0.94745,1.80665 1.89546,3.61402 2.84375,5.41992 1.4214,1.80665 2.6064,3.83819 3.55469,6.0957 1.89532,4.06458 2.84333,9.25829 2.84375,15.58008 v 100.24805 c -4.2e-4,7.22619 -0.94843,12.41873 -2.84375,15.58008 -2.37007,5.87055 -4.50312,9.7092 -6.39844,11.51562 -3.31794,3.16067 -7.10804,5.64475 -11.37305,7.45117 -4.2658,1.35493 -9.00587,2.03125 -14.21875,2.03125 -5.68758,0 -10.66273,-0.67632 -14.92773,-2.03125 -4.73972,-1.80642 -8.29476,-4.2905 -10.66407,-7.45117 -3.31789,-1.80642 -5.68793,-5.64507 -7.10937,-11.51562 -1.89611,-4.96706 -2.84409,-10.16035 -2.84375,-15.58008 V 385.31938 c -3.4e-4,-4.96709 0.94764,-10.16084 2.84375,-15.58008 1.42144,-4.51532 3.79148,-8.35427 7.10937,-11.51562 3.31718,-3.16067 6.87222,-5.41821 10.66407,-6.77344 3.31714,-1.8059 8.29228,-2.70853 14.92773,-2.70898 z m -164.24609,0.66796 c 18.66421,0.13409 37.40425,14.9772 34.1582,44.50977 -1.15453,22.81232 -17.71358,34.33543 -34.28125,34.32617 -18.77669,-0.0113 -37.56382,-14.83404 -33.95312,-44.82422 1.19866,-22.79652 17.60775,-34.13002 34.07617,-34.01172 z" id="path20-6-4"/>
  </g>
</svg>