<?xml version="1.0" encoding="UTF-8"?>
<!-- Generator: Adobe Illustrator 16.0.0, SVG Export Plug-In . SVG Version: 6.00 Build 0)  -->
<svg version="1.1" xmlns="http://www.w3.org/2000/svg" xmlns:xlink="http://www.w3.org/1999/xlink" x="0px" y="0px" width="600px" height="600px" viewBox="0 -643 600 600" enable-background="new 0 -643 600 600" xml:space="preserve">
<circle fill="#FFFFFF" cx="300" cy="-343" r="292.188"/>
<path fill="#FFFFFF" d="M315.454-642.609C473.958-634.566,600-503.502,600-343c0,165.681-134.307,299.993-299.986,300h0.014 c165.688,0,300-134.314,300-300C600.027-503.51,473.973-634.579,315.454-642.609z"/>
<path d="M300-643C134.314-643,0-508.685,0-343s134.314,300,300,300s300-134.315,300-300S465.686-643,300-643z M300.001-50.811  C138.63-50.811,7.813-181.629,7.813-343S138.63-635.188,300.001-635.188c161.37,0,292.187,130.817,292.187,292.188  S461.371-50.811,300.001-50.811z"/>
<circle fill="#CC0000" cx="300" cy="-343" r="280.805"/>
<circle fill="#FFFFFF" cx="300" cy="-343" r="210.781"/>
<path d="M149.984-334.557v-134.408h132.361v35.648h-98.759v56.118c26.224-20.982,64.501-16.444,84.09,4.605  c18.67,20.23,19.616,39.654,19.616,68.057c0,35.461-5.135,58.603-36.843,77.78c-18.903,11.437-49.581,12.927-78.804-6.482  c-14.898-9.893-23.653-26.438-26.268-49.636h35.649c4.205,19.333,16.09,28.997,35.648,28.997c17.398,0,27.574-5.97,30.532-17.91  c5.29-21.366,7.433-50.259-2.559-69.763c-4.664-9.096-14.328-13.645-28.997-13.645c-13.76,0-24.45,6.882-32.066,20.639H149.984z"/>
<path d="M313.391-289.867v-109.676c0-22.856,7.162-40.509,21.491-52.961c28.703-24.946,69.189-25.076,98.162,0  c14.384,12.452,21.577,30.105,21.577,52.961v109.676c0,22.856-7.193,40.483-21.577,52.876c-28.815,24.827-69.321,24.953-98.162,0  C320.553-249.385,313.391-267.011,313.391-289.867z M418.973-291.915v-105.582c0-11.939-3.215-21.262-9.638-27.972  c-17.181-17.937-60.296-14.362-60.296,27.972v105.582c0,25.273,14.823,38.038,34.967,38.038  C404.156-253.878,418.973-266.892,418.973-291.915z"/>
</svg>